<svg width="24" height="24" viewBox="0 0 24 24" fill="none" xmlns="http://www.w3.org/2000/svg">
<path d="M1.63636 21.0023H5.45455V11.7296L0 7.63867V19.3659C0 20.2714 0.733636 21.0023 1.63636 21.0023Z" fill="white"/>
<path d="M18.5455 21.0023H22.3637C23.2692 21.0023 24.0001 20.2687 24.0001 19.3659V7.63867L18.5455 11.7296" fill="white"/>
<path d="M18.5455 4.63856V11.7295L24.0001 7.63856V5.45675C24.0001 3.43311 21.6901 2.27947 20.0728 3.49311" fill="white"/>
<path d="M5.45447 11.7296V4.63867L11.9999 9.54776L18.5454 4.63867V11.7296L11.9999 16.6387" fill="white"/>
<path d="M0 5.45675V7.63856L5.45455 11.7295V4.63856L3.92727 3.49311C2.30727 2.27947 0 3.43311 0 5.45675Z" fill="white"/>
</svg>
