<svg width="60" height="60" viewBox="0 0 60 60" fill="none" xmlns="http://www.w3.org/2000/svg">
<g filter="url(#filter0_d_49_154)">
<path d="M2 29C2 13.536 14.536 1 30 1C45.464 1 58 13.536 58 29C58 44.464 45.464 57 30 57C14.536 57 2 44.464 2 29Z" fill="#448A54" shape-rendering="crispEdges"/>
<mask id="mask0_49_154" style="mask-type:alpha" maskUnits="userSpaceOnUse" x="14" y="13" width="32" height="32">
<rect x="14" y="13" width="32" height="32" fill="#D9D9D9"/>
</mask>
<g mask="url(#mask0_49_154)">
<path d="M15.3333 39.6667V34.3334C15.3333 33.5778 15.5944 32.9445 16.1166 32.4334C16.6388 31.9223 17.2666 31.6667 17.9999 31.6667H22.3666C22.811 31.6667 23.2333 31.7778 23.6333 32C24.0333 32.2223 24.3555 32.5223 24.5999 32.9C25.2444 33.7667 26.0388 34.4445 26.9833 34.9334C27.9277 35.4223 28.9333 35.6667 29.9999 35.6667C31.0888 35.6667 32.1055 35.4223 33.0499 34.9334C33.9944 34.4445 34.7777 33.7667 35.3999 32.9C35.6888 32.5223 36.0277 32.2223 36.4166 32C36.8055 31.7778 37.211 31.6667 37.6333 31.6667H41.9999C42.7555 31.6667 43.3888 31.9223 43.8999 32.4334C44.411 32.9445 44.6666 33.5778 44.6666 34.3334V39.6667H35.3333V36.6334C34.5555 37.1889 33.7166 37.6112 32.8166 37.9C31.9166 38.1889 30.9777 38.3334 29.9999 38.3334C29.0444 38.3334 28.111 38.1834 27.1999 37.8834C26.2888 37.5834 25.4444 37.1556 24.6666 36.6V39.6667H15.3333ZM29.9999 34.3334C29.1555 34.3334 28.3555 34.1389 27.5999 33.75C26.8444 33.3612 26.211 32.8223 25.6999 32.1334C25.3221 31.5778 24.8499 31.1389 24.2833 30.8167C23.7166 30.4945 23.0999 30.3334 22.4333 30.3334C22.9221 29.5112 23.9555 28.8612 25.5333 28.3834C27.111 27.9056 28.5999 27.6667 29.9999 27.6667C31.3999 27.6667 32.8888 27.9056 34.4666 28.3834C36.0444 28.8612 37.0777 29.5112 37.5666 30.3334C36.9221 30.3334 36.311 30.4945 35.7333 30.8167C35.1555 31.1389 34.6777 31.5778 34.2999 32.1334C33.811 32.8445 33.1888 33.3889 32.4333 33.7667C31.6777 34.1445 30.8666 34.3334 29.9999 34.3334ZM19.3333 30.3334C18.2221 30.3334 17.2777 29.9445 16.4999 29.1667C15.7221 28.3889 15.3333 27.4445 15.3333 26.3334C15.3333 25.2 15.7221 24.25 16.4999 23.4834C17.2777 22.7167 18.2221 22.3334 19.3333 22.3334C20.4666 22.3334 21.4166 22.7167 22.1833 23.4834C22.9499 24.25 23.3333 25.2 23.3333 26.3334C23.3333 27.4445 22.9499 28.3889 22.1833 29.1667C21.4166 29.9445 20.4666 30.3334 19.3333 30.3334ZM40.6666 30.3334C39.5555 30.3334 38.611 29.9445 37.8333 29.1667C37.0555 28.3889 36.6666 27.4445 36.6666 26.3334C36.6666 25.2 37.0555 24.25 37.8333 23.4834C38.611 22.7167 39.5555 22.3334 40.6666 22.3334C41.7999 22.3334 42.7499 22.7167 43.5166 23.4834C44.2833 24.25 44.6666 25.2 44.6666 26.3334C44.6666 27.4445 44.2833 28.3889 43.5166 29.1667C42.7499 29.9445 41.7999 30.3334 40.6666 30.3334ZM29.9999 26.3334C28.8888 26.3334 27.9444 25.9445 27.1666 25.1667C26.3888 24.3889 25.9999 23.4445 25.9999 22.3334C25.9999 21.2 26.3888 20.25 27.1666 19.4834C27.9444 18.7167 28.8888 18.3334 29.9999 18.3334C31.1333 18.3334 32.0833 18.7167 32.8499 19.4834C33.6166 20.25 33.9999 21.2 33.9999 22.3334C33.9999 23.4445 33.6166 24.3889 32.8499 25.1667C32.0833 25.9445 31.1333 26.3334 29.9999 26.3334Z" fill="white"/>
</g>
</g>
<defs>
<filter id="filter0_d_49_154" x="0" y="0" width="60" height="60" filterUnits="userSpaceOnUse" color-interpolation-filters="sRGB">
<feFlood flood-opacity="0" result="BackgroundImageFix"/>
<feColorMatrix in="SourceAlpha" type="matrix" values="0 0 0 0 0 0 0 0 0 0 0 0 0 0 0 0 0 0 127 0" result="hardAlpha"/>
<feOffset dy="1"/>
<feGaussianBlur stdDeviation="1"/>
<feComposite in2="hardAlpha" operator="out"/>
<feColorMatrix type="matrix" values="0 0 0 0 0.0627451 0 0 0 0 0.0941176 0 0 0 0 0.156863 0 0 0 0.04 0"/>
<feBlend mode="normal" in2="BackgroundImageFix" result="effect1_dropShadow_49_154"/>
<feBlend mode="normal" in="SourceGraphic" in2="effect1_dropShadow_49_154" result="shape"/>
</filter>
</defs>
</svg>
