<svg width="61" height="48" viewBox="0 0 61 48" fill="none" xmlns="http://www.w3.org/2000/svg">
<g clip-path="url(#clip0_276_332)">
<path d="M36.3638 24.826C36.8408 23.4108 37.1515 21.9255 37.2785 20.3944L34.2455 18.9145C34.2493 18.4194 34.2311 17.9204 34.1873 17.4185C34.1752 17.2448 34.1518 17.075 34.1321 16.9028L36.9852 15.0862C36.6889 13.5772 36.2171 12.1353 35.5896 10.7879L32.2195 11.0347C31.8906 10.4466 31.5232 9.88147 31.124 9.34599L32.6927 6.34033C31.7016 5.20463 30.5767 4.19157 29.3467 3.32324L26.5526 5.23205C25.9803 4.89234 25.3853 4.58689 24.7684 4.31954L24.6361 0.926929C23.2323 0.446297 21.7566 0.132477 20.2393 0.00146484L18.7696 3.06045C18.2783 3.05588 17.7861 3.07568 17.2856 3.11834C17.1125 3.13357 16.9424 3.15566 16.7731 3.17623L14.9731 0.296242C13.4732 0.597875 12.0429 1.07318 10.704 1.70462L10.9497 5.10028C10.3668 5.43238 9.80513 5.80104 9.27518 6.20474L6.28978 4.62346C5.16109 5.62357 4.15562 6.75621 3.29682 7.99702L5.19284 10.8107C4.8534 11.3881 4.54798 11.9868 4.2849 12.6068L0.916212 12.7401C0.439182 14.1554 0.129983 15.6392 0.00146484 17.1717L3.036 18.6517C3.03298 19.1475 3.04886 19.6457 3.09195 20.1477C3.10707 20.3213 3.12899 20.4904 3.15167 20.6633L0.295545 22.4784C0.595672 23.9874 1.0659 25.4293 1.69261 26.7767L5.0613 26.5307C5.39167 27.1187 5.75757 27.6816 6.15673 28.2186L4.58729 31.2235C5.5784 32.363 6.70558 33.3753 7.93481 34.2414L10.7274 32.3326C11.3012 32.6761 11.897 32.9823 12.5116 33.2474L12.6446 36.6407C14.0485 37.1198 15.5204 37.4344 17.0392 37.5639L18.5126 34.5064C19.0025 34.5095 19.4984 34.4927 19.9966 34.4493C20.1675 34.4356 20.3376 34.4112 20.5054 34.3899L22.3069 37.2699C23.8083 36.9675 25.2371 36.4937 26.5767 35.863L26.3333 32.4666C26.9139 32.1322 27.4741 31.7643 28.0078 31.3621L30.9917 32.9427C32.1189 31.9426 33.1236 30.8107 33.9839 29.5699L32.0917 26.7554C32.4281 26.1773 32.7313 25.577 32.9981 24.957L36.3653 24.8245L36.3638 24.826ZM18.6404 29.8654C12.5743 29.8654 7.64073 24.8938 7.64073 18.7827C7.64073 12.6716 12.5743 7.70072 18.6404 7.70072C24.7064 7.70072 29.6393 12.6723 29.6393 18.7834C29.6393 24.8946 24.7049 29.8662 18.6404 29.8662V29.8654Z" fill="white"/>
<path d="M8.42627 18.7828C8.42627 24.4567 13.0068 29.0733 18.6404 29.0733C24.2741 29.0733 28.8531 24.4567 28.8531 18.7828C28.8531 13.1089 24.2726 8.49146 18.6404 8.49146C13.0083 8.49146 8.42627 13.1081 8.42627 18.7828ZM26.3266 18.1071C26.6955 22.3864 23.5551 26.1568 19.3102 26.5285C15.0654 26.9025 11.3217 23.7346 10.9513 19.4592C10.5839 15.1815 13.7242 11.4103 17.9691 11.0393C22.2163 10.6653 25.9592 13.8325 26.3266 18.1079V18.1071Z" fill="white"/>
<path d="M38.1131 33.5727C38.0126 38.4354 41.8568 42.4747 46.6823 42.576C51.5085 42.678 55.5168 38.804 55.6181 33.9429C55.7201 29.0802 51.8767 25.0409 47.0482 24.9396C42.2219 24.8375 38.2137 28.7108 38.1131 33.5727ZM51.476 30.8709C52.9774 33.4287 52.1367 36.7299 49.5981 38.2434C47.0262 39.7752 43.7037 38.8863 42.2265 36.2554C40.8415 33.7844 41.6716 30.5305 44.0673 29.0368C46.618 27.4456 49.9549 28.2857 51.476 30.8709Z" fill="white"/>
<path d="M60.9328 35.1562C61.0318 34.1302 61.0227 33.0966 60.9018 32.0622L58.5204 31.4886C58.3949 30.8594 58.2188 30.2326 57.9957 29.6171L59.7413 27.882C59.5319 27.415 59.2945 26.955 59.0299 26.5056C58.7684 26.0577 58.4826 25.6296 58.1764 25.2183L55.8268 25.9259C55.3997 25.4293 54.94 24.9738 54.4494 24.5625L55.0995 22.1829C54.2589 21.5774 53.363 21.0708 52.4233 20.6641L50.736 22.4617C50.1282 22.25 49.5045 22.0885 48.8725 21.9773L48.2488 19.5825C47.2327 19.4835 46.2053 19.4941 45.184 19.6206L44.6094 22.0192C43.9842 22.141 43.3658 22.3185 42.7565 22.547L41.0329 20.7898C40.5732 20.9992 40.1128 21.2346 39.6675 21.5027C39.2223 21.767 38.7966 22.0557 38.3899 22.3604L39.0892 24.7316C38.5986 25.1627 38.1457 25.625 37.7375 26.1186L35.3758 25.4651C34.774 26.3091 34.272 27.2124 33.8691 28.1569L35.6517 29.8586C35.4416 30.4717 35.2858 31.1001 35.1747 31.7369L32.8009 32.3646C32.7003 33.3883 32.7109 34.4242 32.8326 35.4563L35.2178 36.0276C35.3395 36.6598 35.5141 37.2836 35.7372 37.9014L33.9931 39.6357C34.2017 40.1027 34.4361 40.5612 34.7014 41.0076C34.966 41.4585 35.2511 41.8888 35.555 42.2971L37.9076 41.5918C38.3332 42.0861 38.7966 42.5416 39.2843 42.9522L38.6371 45.3348C39.4763 45.9388 40.3706 46.4484 41.3065 46.849L42.9977 45.0545C43.607 45.2685 44.2254 45.4277 44.8627 45.5366L45.4841 47.9306C46.4987 48.0274 47.5283 48.0213 48.5527 47.8979L49.1197 45.4963C49.7464 45.3744 50.3663 45.1969 50.9764 44.9692L52.7061 46.7272C53.1657 46.5192 53.6208 46.2808 54.0661 46.0142C54.5129 45.7484 54.9347 45.4605 55.343 45.1527L54.6437 42.7854C55.1351 42.355 55.5872 41.8904 55.9946 41.3983L58.3579 42.0511C58.9589 41.2056 59.4639 40.3022 59.8615 39.3585L58.0789 37.6546C58.2876 37.0452 58.4501 36.4183 58.559 35.7793L60.9328 35.1539V35.1562ZM46.6733 42.9575C41.6392 42.8516 37.6286 38.6379 37.7345 33.5642C37.8388 28.4921 42.0202 24.4505 47.0566 24.5571C52.0915 24.663 56.1005 28.8767 55.9969 33.9504C55.8911 39.0233 51.7097 43.0641 46.6733 42.9575Z" fill="white"/>
</g>
<defs>
<clipPath id="clip0_276_332">
<rect width="61" height="48" fill="white"/>
</clipPath>
</defs>
</svg>
