<svg width="61" height="48" viewBox="0 0 61 48" fill="none" xmlns="http://www.w3.org/2000/svg">
<g clip-path="url(#clip0_276_368)">
<g clip-path="url(#clip1_276_368)">
<path d="M12.1049 34.4253C15.035 34.4253 17.4132 32.0352 17.4132 29.1037C17.4132 26.1722 15.035 23.7821 12.1049 23.7821C9.1748 23.7821 6.80971 26.1722 6.80971 29.1037C6.80971 32.0352 9.18794 34.4253 12.1049 34.4253ZM43.5868 29.1037C43.5868 32.0484 45.965 34.4253 48.882 34.4253C51.7989 34.4253 54.1903 32.0352 54.1903 29.1037C54.1903 26.1722 51.8121 23.7821 48.882 23.7821C45.9519 23.7821 43.5868 26.1722 43.5868 29.1037ZM41.1692 30.8996C40.8538 29.5659 40.867 28.1133 41.3663 26.5948C42.0364 24.548 43.5868 22.871 45.5183 21.9334C47.187 21.1279 48.7769 20.9959 50.2353 21.2468C50.6295 21.3128 50.9711 20.9959 50.9711 20.5997V2.64099C50.9711 1.18845 49.7886 0 48.3433 0H12.867C11.4216 0 10.2391 1.18845 10.2391 2.64099V20.5733C10.2391 20.9695 10.5807 21.2864 10.9749 21.2204C12.6699 20.9695 14.5357 21.2336 16.5328 22.5805C17.9388 23.5312 19.0556 24.9045 19.5943 26.5155C20.1199 28.0605 20.1462 29.5527 19.8177 30.8996C19.7257 31.3089 20.0411 31.6919 20.4615 31.6919H21.9857C22.4718 31.6919 22.7215 31.4806 22.8003 31.1769C23.6412 27.6908 26.7684 25.1026 30.5 25.1026C34.2316 25.1026 37.3456 27.704 38.1997 31.1769C38.2785 31.4806 38.5282 31.6919 38.8304 31.6919H40.5385C40.9589 31.6919 41.2743 31.3089 41.1823 30.8996H41.1692ZM29.843 18.1568H20.6455C19.7389 18.1568 19.0031 17.4173 19.0031 16.5062C19.0031 15.595 19.7389 14.8556 20.6455 14.8556H29.843C30.7496 14.8556 31.4855 15.595 31.4855 16.5062C31.4855 17.4173 30.7496 18.1568 29.843 18.1568ZM20.6455 11.5543C19.7389 11.5543 19.0031 10.8149 19.0031 9.90371C19.0031 8.99257 19.7389 8.2531 20.6455 8.2531H41.6685C42.5751 8.2531 43.3109 8.99257 43.3109 9.90371C43.3109 10.8149 42.5751 11.5543 41.6685 11.5543H20.6455ZM17.3869 37.1191H6.82285C4.43149 37.1191 2.5 39.0602 2.5 41.4636V42.718C2.5 43.4443 3.09127 44.0385 3.81394 44.0385H17.8993C18.2015 44.0385 18.4512 43.8272 18.53 43.5367C18.9242 42.1238 19.752 40.9089 20.8557 40.011C21.1316 39.7865 21.1973 39.4036 21.0002 39.0999C20.225 37.9114 18.8979 37.1059 17.3738 37.1059L17.3869 37.1191ZM54.1772 37.1191H43.6131C42.0889 37.1191 40.7619 37.9114 39.9866 39.1131C39.7895 39.4168 39.8552 39.7997 40.1312 40.0242C41.2349 40.9221 42.0626 42.137 42.4568 43.5499C42.5357 43.8404 42.7853 44.0517 43.0875 44.0517H57.1729C57.8956 44.0517 58.4869 43.4575 58.4869 42.7312V41.4768C58.4869 39.0735 56.5554 37.1323 54.164 37.1323L54.1772 37.1191Z" fill="white"/>
<path d="M30.5 38.3868C33.4301 38.3868 35.8083 35.9967 35.8083 33.0652C35.8083 30.1337 33.4301 27.7437 30.5 27.7437C27.5699 27.7437 25.2049 30.1337 25.2049 33.0652C25.2049 35.9967 27.5831 38.3868 30.5 38.3868ZM35.7821 41.0807H25.218C22.8266 41.0807 20.8951 43.0218 20.8951 45.4251V46.6796C20.8951 47.4058 21.4864 48 22.2091 48H38.791C39.5136 48 40.1049 47.4058 40.1049 46.6796V45.4251C40.1049 43.0218 38.1734 41.0807 35.7821 41.0807Z" fill="white"/>
</g>
</g>
<defs>
<clipPath id="clip0_276_368">
<rect width="61" height="48" fill="white"/>
</clipPath>
<clipPath id="clip1_276_368">
<rect width="56" height="48" fill="white" transform="translate(2.5)"/>
</clipPath>
</defs>
</svg>
