<svg width="61" height="48" viewBox="0 0 61 48" fill="none" xmlns="http://www.w3.org/2000/svg">
<g clip-path="url(#clip0_276_374)">
<path d="M30.4148 16.4297C29.6941 16.4297 29.1044 17.0216 29.1044 17.7451V25.0984L24.2428 29.9786C23.7317 30.4916 23.7317 31.3203 24.2428 31.8334C24.5049 32.0964 24.8325 32.2148 25.1732 32.2148C25.5139 32.2148 25.8415 32.0833 26.1036 31.8334L31.3452 26.5716C31.5941 26.3217 31.7252 25.9929 31.7252 25.6377V17.7451C31.7252 17.0216 31.1355 16.4297 30.4148 16.4297Z" fill="white"/>
<path d="M20.2461 2.19786C17.3239 -0.735549 12.5933 -0.735549 9.67115 2.19786L8.68835 3.18443C5.76616 6.11784 5.76616 10.8665 8.68835 13.7999C8.95043 14.063 9.35666 14.063 9.61874 13.7999L20.2461 3.13181C20.5082 2.86873 20.5082 2.46094 20.2461 2.19786ZM33.0356 6.09153V5.2365C33.0356 3.42121 31.568 1.94793 29.7596 1.94793C27.9513 1.94793 26.4836 3.42121 26.4836 5.2365V6.28884C17.5074 8.11729 10.7588 16.0756 10.7588 25.6256C10.7588 30.9794 12.8947 35.8334 16.3542 39.3982L14.192 43.7391C13.2223 45.6991 14.6376 48.0011 16.8128 48.0011C17.9267 48.0011 18.9357 47.3697 19.4336 46.37L21.111 43.0156C23.889 44.5152 27.0471 45.3702 30.4279 45.3702C33.8087 45.3702 36.9668 44.5152 39.7449 43.0156L41.4222 46.37C41.9201 47.3697 42.9291 48.0011 44.043 48.0011C46.2182 48.0011 47.6335 45.6991 46.6638 43.7391L44.5016 39.3982C47.9611 35.8465 50.097 30.9926 50.097 25.6256C50.097 15.6284 42.6802 7.38065 33.0618 6.09153H33.0356ZM30.4148 38.7931C23.1945 38.7931 17.3108 32.8868 17.3108 25.6388C17.3108 18.3908 23.1945 12.4845 30.4148 12.4845C37.6351 12.4845 43.5188 18.3908 43.5188 25.6388C43.5188 32.8868 37.6351 38.7931 30.4148 38.7931ZM52.3116 3.18443L51.3288 2.19786C48.4066 -0.735549 43.6761 -0.735549 40.7539 2.19786C40.4918 2.46094 40.4918 2.86873 40.7539 3.13181L51.3812 13.7999C51.6433 14.063 52.0495 14.063 52.3116 13.7999C55.2338 10.8665 55.2338 6.11784 52.3116 3.18443Z" fill="white"/>
</g>
<defs>
<clipPath id="clip0_276_374">
<rect width="48" height="48" fill="white" transform="translate(6.5)"/>
</clipPath>
</defs>
</svg>
