<svg width="61" height="48" viewBox="0 0 61 48" fill="none" xmlns="http://www.w3.org/2000/svg">
<g clip-path="url(#clip0_276_404)">
<path d="M53.8504 18.834C52.7935 16.3338 51.2809 14.0887 49.3548 12.1614C47.4284 10.2339 45.185 8.72034 42.6864 7.66301C40.6036 6.78148 38.4168 6.24992 36.1662 6.07604V3.76465H37.5045C38.5433 3.76465 39.3855 2.92191 39.3855 1.88246C39.3855 0.843008 38.5433 0 37.5045 0H31.5337C30.4949 0 29.6526 0.842733 29.6526 1.88219C29.6526 2.92164 30.4949 3.76437 31.5337 3.76437H32.8719V6.07577C29.1569 6.36383 25.6137 7.62559 22.5394 9.7686C20.8417 10.9519 19.3306 12.376 18.047 14.0013C16.9884 15.342 16.1008 16.8002 15.4 18.3478H9.93096C9.02138 18.3478 8.28394 19.0857 8.28394 19.9959C8.28394 20.906 9.02138 21.6439 9.93096 21.6439H16.4718C16.4789 21.6439 16.4858 21.6444 16.4929 21.6444C16.5015 21.6444 16.51 21.6442 16.5185 21.6439H22.2355C23.1451 21.6439 23.8826 20.906 23.8826 19.9959C23.8826 19.0857 23.1451 18.3478 22.2355 18.3478H19.09C19.5417 17.5433 20.0567 16.7732 20.6319 16.0444C21.7148 14.6729 22.99 13.4713 24.4223 12.4729C27.3927 10.4022 30.8842 9.30775 34.5189 9.30775C36.9073 9.30775 39.2235 9.77548 41.4029 10.6977C43.5088 11.5889 45.4006 12.8652 47.0253 14.4913C48.6501 16.117 49.9256 18.0099 50.8165 20.1172C51.7384 22.2979 52.2056 24.6156 52.2056 27.0054C52.2056 29.3952 51.7382 31.7127 50.8165 33.8937C49.9256 36.0009 48.6503 37.8938 47.0253 39.5196C45.4006 41.1453 43.5088 42.4217 41.4029 43.3131C39.2235 44.2356 36.9073 44.7031 34.5189 44.7031C30.8842 44.7031 27.3927 43.6086 24.422 41.5379C22.9898 40.5395 21.7145 39.338 20.6317 37.9664C20.0562 37.2376 19.5414 36.4675 19.0897 35.6633H22.2353C23.1448 35.6633 23.8823 34.9254 23.8823 34.0153C23.8823 33.1051 23.1448 32.3672 22.2353 32.3672H16.5136C16.494 32.3672 16.4742 32.3667 16.4547 32.3672H11.8169C10.9074 32.3672 10.1699 33.1051 10.1699 34.0153C10.1699 34.9254 10.9074 35.6633 11.8169 35.6633H15.4C16.1008 37.2109 16.9881 38.6691 18.0468 40.0099C19.33 41.6353 20.8415 43.0594 22.5388 44.2428C26.0647 46.7006 30.207 47.9995 34.5187 47.9995C37.3502 47.9995 40.0982 47.4442 42.6859 46.3489C45.1844 45.2913 47.4281 43.7778 49.3543 41.8505C51.2806 39.9229 52.7932 37.6781 53.8499 35.178C54.9445 32.5887 55.4994 29.8393 55.4994 27.0057C55.4994 24.1721 54.9445 21.4227 53.8499 18.8334L53.8504 18.834Z" fill="white"/>
<path d="M43.6584 16.9897L34.9467 22.7595C33.7163 22.6366 32.4421 23.0454 31.5014 23.9866C30.6955 24.793 30.2515 25.8655 30.2515 27.0059C30.2515 28.1464 30.6953 29.2188 31.5014 30.0253C32.3074 30.8317 33.3792 31.276 34.5189 31.276C35.6586 31.276 36.7304 30.8319 37.5363 30.0255C38.3422 29.2191 38.7863 28.1466 38.7863 27.0062C38.7863 26.8612 38.7792 26.7173 38.7649 26.5751L44.5289 17.8611C44.9067 17.2902 44.2289 16.612 43.6584 16.99V16.9897ZM35.2071 27.6946C34.8277 28.0743 34.2104 28.0743 33.8309 27.6946C33.6473 27.5108 33.5458 27.2662 33.5458 27.0059C33.5458 26.7457 33.647 26.5014 33.8309 26.3173C34.0206 26.1274 34.2698 26.0325 34.5192 26.0325C34.7685 26.0325 35.0177 26.1274 35.2074 26.3173C35.3911 26.5011 35.4925 26.7457 35.4925 27.0059C35.4925 27.2662 35.3913 27.5105 35.2074 27.6946H35.2071Z" fill="white"/>
<path d="M24.8706 27.006C24.8706 26.0958 24.1331 25.3579 23.2235 25.3579H7.14703C6.23745 25.3579 5.5 26.0958 5.5 27.006C5.5 27.9161 6.23745 28.654 7.14703 28.654H23.2235C24.1331 28.654 24.8706 27.9161 24.8706 27.006Z" fill="white"/>
</g>
<defs>
<clipPath id="clip0_276_404">
<rect width="50" height="48" fill="white" transform="translate(5.5)"/>
</clipPath>
</defs>
</svg>
