<svg width="61" height="48" viewBox="0 0 61 48" fill="none" xmlns="http://www.w3.org/2000/svg">
<g clip-path="url(#clip0_276_424)">
<path d="M43.0342 7.84766H36.4363V9.41718C36.4363 10.8561 35.2753 12.0275 33.8493 12.0275H27.1815C25.7555 12.0275 24.5945 10.8561 24.5945 9.41718V7.84766H17.9658C16.6096 7.84766 15.5 8.96726 15.5 10.3357V45.512C15.5 46.8804 16.6096 48 17.9658 48H43.0342C44.3904 48 45.5 46.8804 45.5 45.512V10.3357C45.5 8.96726 44.3904 7.84766 43.0342 7.84766ZM27.9849 34.9297L23.1479 40.4925C22.9815 40.6853 22.7473 40.7827 22.513 40.7827C22.3281 40.7827 22.1432 40.7226 21.987 40.5982L20.0473 39.037C19.6815 38.7426 19.6219 38.2076 19.9116 37.8407C20.2034 37.4716 20.7336 37.4115 21.0993 37.7059L22.4103 38.7591L26.7171 33.808C27.0253 33.4535 27.5575 33.4182 27.9089 33.7292C28.2582 34.0381 28.2932 34.5772 27.9849 34.9297ZM27.9849 25.9459L23.1479 31.5087C22.9815 31.6994 22.7473 31.7989 22.513 31.7989C22.3281 31.7989 22.1432 31.7388 21.987 31.6123L20.0473 30.0511C19.6815 29.7588 19.6219 29.2238 19.9116 28.8548C20.2034 28.4878 20.7336 28.4277 21.0993 28.72L22.4103 29.7753L26.7171 24.8221C27.0253 24.4697 27.5575 24.4344 27.9089 24.7433C28.2582 25.0543 28.2932 25.5934 27.9849 25.9459ZM27.9849 17.2544L23.1479 22.8172C22.9815 23.01 22.7473 23.1075 22.513 23.1075C22.3281 23.1075 22.1432 23.0473 21.987 22.9229L20.0473 21.3617C19.6815 21.0673 19.6219 20.5324 19.9116 20.1654C20.2034 19.7963 20.7336 19.7362 21.0993 20.0306L22.4103 21.0839L26.7171 16.1327C27.0253 15.7782 27.5575 15.743 27.9089 16.054C28.2582 16.3629 28.2932 16.902 27.9849 17.2544Z" fill="white"/>
<path d="M34.0979 5.14604C34.2459 4.73345 34.3219 4.29182 34.3219 3.83983C34.3219 1.72295 32.6143 0 30.5164 0C28.4185 0 26.7089 1.72295 26.7089 3.83983C26.7089 4.29182 26.7849 4.73137 26.9328 5.14604C25.6219 5.27252 24.5945 6.39005 24.5945 7.74394V9.41713C24.5945 10.856 25.7554 12.0275 27.1815 12.0275H33.8493C35.2753 12.0275 36.4363 10.856 36.4363 9.41713V7.74394C36.4363 6.39005 35.4089 5.27252 34.0979 5.14604ZM26.2383 7.74394C26.2383 7.21939 26.6616 6.79228 27.1815 6.79228H28.3959C28.7267 6.79228 29.0267 6.59116 29.1541 6.28223C29.2815 5.97331 29.2137 5.61669 28.9794 5.38033C28.5746 4.96773 28.3527 4.42037 28.3527 3.83983C28.3527 2.63729 29.3226 1.65868 30.5164 1.65868C31.7102 1.65868 32.678 2.63729 32.678 3.83983C32.678 4.42244 32.4561 4.96773 32.0513 5.37826C31.8171 5.61669 31.7493 5.97123 31.8767 6.28016C32.0041 6.58909 32.3041 6.7902 32.6349 6.7902H33.8493C34.3691 6.7902 34.7924 7.21731 34.7924 7.74187V9.41506C34.7924 9.93961 34.3691 10.3667 33.8493 10.3667H27.1815C26.6616 10.3667 26.2383 9.93961 26.2383 9.41506V7.74187V7.74394Z" fill="white"/>
</g>
<defs>
<clipPath id="clip0_276_424">
<rect width="30" height="48" fill="white" transform="translate(15.5)"/>
</clipPath>
</defs>
</svg>
