<svg width="61" height="48" viewBox="0 0 61 48" fill="none" xmlns="http://www.w3.org/2000/svg">
<g clip-path="url(#clip0_276_419)">
<path d="M53.5 23.6007V30.2374C53.5 33.7856 51.4617 36.6906 48.9737 36.6906H47.6141V38.9633C47.6141 42.8547 44.4431 46.0187 40.548 46.0187H38.4881C38.2049 47.154 37.1738 48 35.9547 48H31.1323C29.697 48 28.5211 46.8259 28.5211 45.3906V44.2986C28.5211 42.8655 29.697 41.6914 31.1323 41.6914H35.9547C37.1695 41.6914 38.1962 42.5309 38.4859 43.6554H40.5502C43.1419 43.6554 45.2494 41.5511 45.2494 38.9633V36.6906H43.0641C42.327 36.6906 41.7282 35.8381 41.7282 34.7892V19.0511C41.7282 18 42.327 17.1475 43.0641 17.1475H43.3883V16.2906C43.3883 10.2065 38.4319 5.25755 32.3384 5.25755H28.88C22.7865 5.25755 17.8301 10.2065 17.8301 16.2906V17.1475H17.9403C18.6774 17.1475 19.274 18 19.274 19.0511V34.7892C19.274 35.8403 18.6774 36.6906 17.9403 36.6906H12.0285C9.53838 36.6906 7.5022 33.7856 7.5022 30.2374V23.6007C7.5022 20.0525 9.54054 17.1453 12.0285 17.1453H12.5667V16.2885C12.5667 7.30791 19.8836 0 28.88 0H32.3384C41.3327 0 48.6517 7.30791 48.6517 16.2885V17.1453H48.9737C51.4639 17.1453 53.5 20.0504 53.5 23.6007Z" fill="white"/>
</g>
<defs>
<clipPath id="clip0_276_419">
<rect width="46" height="48" fill="white" transform="translate(7.5)"/>
</clipPath>
</defs>
</svg>
