<svg width="24" height="24" viewBox="0 0 24 24" fill="none" xmlns="http://www.w3.org/2000/svg">
<path d="M12 3.54541C12 3.54541 19.4992 3.54582 21.376 4.05029C21.8857 4.18925 22.3503 4.45971 22.7227 4.83447C23.0948 5.20912 23.3624 5.67469 23.498 6.18506C23.9968 8.05803 24 11.9518 24 11.9995C24 11.9995 23.9999 15.9304 23.498 17.8149C23.3623 18.3253 23.0949 18.7909 22.7227 19.1655C22.3503 19.5403 21.8857 19.8108 21.376 19.9497C19.4991 20.4542 12 20.4546 12 20.4546C12 20.4546 4.50088 20.4542 2.62402 19.9497C2.11432 19.8108 1.64972 19.5403 1.27734 19.1655C0.905148 18.7909 0.637662 18.3253 0.501953 17.8149C0.000134945 15.9304 0 11.9995 0 11.9995C1.88183e-05 11.9518 0.00321737 8.05803 0.501953 6.18506C0.637649 5.67469 0.905152 5.20912 1.27734 4.83447C1.64972 4.45971 2.11432 4.18925 2.62402 4.05029C4.50085 3.54582 12 3.54541 12 3.54541ZM9.5459 15.5688L15.8184 12.0005L9.5459 8.43115V15.5688Z" fill="white"/>
</svg>
